<svg xmlns="http://www.w3.org/2000/svg" viewBox="0 0 100 100" version="1.1" x="0px" y="0px"><title>Download s18.4</title><desc>Created with Sketch.</desc><g stroke="none" stroke-width="1" fill="none" fill-rule="evenodd" transform="matrix(0, 1, -1, 0, 100, -0.000002)"><g fill="rgba(255,255,255,1)"><path d="M50,80 C33.4314575,80 20,66.5685425 20,50 C20,33.4314575 33.4314575,20 50,20 C66.5685425,20 80,33.4314575 80,50 C80,66.5685425 66.5685425,80 50,80 Z M52.0440897,35.8847054 C50.8854039,34.7017585 49.0132064,34.703755 47.8530305,35.8988363 L37.9298426,46.1205764 C35.1098647,48.9486345 39.3408287,53.1917216 42.1608066,50.3636635 L45.5936309,46.90862 C46.3752882,46.1219034 47.0089466,46.3887776 47.0089466,47.491349 L47.0089466,61.2473409 C47.0089466,62.9001418 48.3516441,64.2400017 50.0004366,64.2400017 C51.6525909,64.2400017 52.9919266,62.8911266 52.9919266,61.2473409 L52.9919266,47.491349 C52.9919266,46.3828001 53.6256059,46.1220556 54.4069511,46.90862 L57.8390694,50.3636635 C60.6600445,53.1917216 64.8900113,48.9486345 62.0700334,46.1205764 L52.0440897,35.8847054 Z" transform="translate(50.000000, 50.000000) rotate(-180.000000) translate(-50.000000, -50.000000) "/></g></g></svg>