<svg xmlns="http://www.w3.org/2000/svg" xmlns:xlink="http://www.w3.org/1999/xlink" viewBox="0 0 100 100" version="1.1" x="0px" y="0px"><title>Home 16.3</title><desc>Created with Sketch.</desc><g stroke="none" stroke-width="1" fill="none" fill-rule="evenodd"><g fill-rule="nonzero" fill="rgba(255,255,255,1)"><path d="M38.0032996,71 L61.9967004,71 C62.5487213,71 63,70.5511826 63,69.9975383 L63,50.991155 C63,49.8896739 63.8954305,49 65,49 C66.1122704,49 67,49.8940894 67,50.9970047 L67,73.0029953 C67,74.1050211 66.1046051,75 65.0000796,75 L34.9999204,75 C33.8919411,75 33,74.1059106 33,73.0029953 L33,50.9970047 C33,49.8949789 33.8954305,49 35,49 C36.1122704,49 37,49.8914705 37,50.991155 L37,69.9975383 C37,70.5605417 37.4491925,71 38.0032996,71 Z M49.2782472,30.453838 L30.8308429,48.0627238 C30.0320935,48.8251664 28.7626784,48.7989965 28,48 C27.2320043,47.1954331 27.2659695,45.9357734 28.0639871,45.1740294 L48.5550614,25.6143675 C49.3502567,24.8553174 50.646921,24.8526235 51.4449386,25.6143675 L71.9360129,45.1740294 C72.7312082,45.9330794 72.7626784,47.2010035 72,48 C71.2320043,48.8045669 69.96991,48.8270789 69.1691571,48.0627238 L50.7217528,30.453838 C50.323876,30.0740464 49.6768602,30.0733436 49.2782472,30.453838 Z"/></g></g></svg>