<svg xmlns="http://www.w3.org/2000/svg" xmlns:cc="http://creativecommons.org/ns#" xmlns:dc="http://purl.org/dc/elements/1.1/" xmlns:rdf="http://www.w3.org/1999/02/22-rdf-syntax-ns#" version="1.1" viewBox="0 0 100 100" x="0px" y="0px"><path d="m50.527 9.4688c-0.03645 0.00278-0.07285 0.021593-0.10938 0.027344-0.09389 0.013916-0.18564 0.037784-0.27734 0.070312-0.02143 0.00794-0.043063 0.0046529-0.064453 0.013672l-44.248 18.654c-1.201 0.50629-1.8675 2.5291-1.4941 4.5371s1.6408 3.2172 2.8418 2.7109l43.449-18.318 43.451 18.318c1.201 0.50629 2.4684-0.70295 2.8418-2.7109 0.37339-2.008-0.29318-4.0308-1.4941-4.5371l-44.248-18.654c-0.02139-0.00902-0.043023-0.0057329-0.064453-0.013672-0.09171-0.032529-0.18346-0.056398-0.27734-0.070312-0.07009-0.011034-0.13925-0.017384-0.20898-0.017578-0.03274 1.378e-4 -0.064806-0.012269-0.097656-0.0097656zm0.058594 9.9141-36.133 15.18v47.336c0 6.3492 4.9652 11.461 11.133 11.461h12.787c-1.8791-0.33928-3.293-1.9105-3.293-3.8145v-32.188c0-2.1532 1.8061-3.8867 4.0508-3.8867h22.832c2.2447 0 4.0527 1.7335 4.0527 3.8867v32.188c0 1.904-1.4159 3.4752-3.2949 3.8145h12.865c6.1676 0 11.133-5.1118 11.133-11.461v-47.352l-36.133-15.164z"/></svg>